<svg width="37" height="37" viewBox="0 0 37 37" fill="none" xmlns="http://www.w3.org/2000/svg">
<circle cx="18.5" cy="18.5" r="18.5" fill="#FF9601"/>
<path d="M29 18.517C28.9993 18.3075 28.941 18.1022 28.8315 17.9239C28.722 17.7456 28.5655 17.6013 28.3794 17.507L21.4749 14.0345V9.49523C21.4749 9.03623 21.385 8.58173 21.2104 8.15767C21.0357 7.7336 20.7798 7.34829 20.4571 7.02373C20.1344 6.69917 19.7514 6.44171 19.3298 6.26606C18.9082 6.09041 18.4563 6 18 6C17.5437 6 17.0918 6.09041 16.6702 6.26606C16.2486 6.44171 15.8656 6.69917 15.5429 7.02373C15.2202 7.34829 14.9643 7.7336 14.7896 8.15767C14.615 8.58173 14.5251 9.03623 14.5251 9.49523V14.0345L7.62055 17.507C7.43449 17.6013 7.27803 17.7456 7.16851 17.9239C7.05898 18.1022 7.00067 18.3075 7.00004 18.517V22.296C6.99851 22.4808 7.0419 22.6633 7.12645 22.8274C7.211 22.9916 7.33414 23.1325 7.48517 23.2379C7.63533 23.3413 7.80816 23.4067 7.9889 23.4285C8.16964 23.4502 8.35292 23.4276 8.52311 23.3627L14.5251 21.0931V25.3259L12.4718 26.0068C12.2477 26.0829 12.0531 26.228 11.9154 26.4214C11.7778 26.6149 11.704 26.847 11.7046 27.0849V29.8652C11.7053 30.0153 11.7355 30.1639 11.7936 30.3022C11.8517 30.4405 11.9365 30.5658 12.0431 30.6709C12.2532 30.8806 12.5369 30.9987 12.8328 31H23.1784C23.4777 31 23.7646 30.8804 23.9762 30.6676C24.1878 30.4548 24.3066 30.1662 24.3066 29.8652V27.0281C24.3073 26.7902 24.2335 26.5582 24.0958 26.3647C23.9582 26.1712 23.7636 26.0262 23.5395 25.9501L21.4749 25.3259V21.1044L27.4769 23.374C27.6471 23.439 27.8304 23.4616 28.0111 23.4398C28.1918 23.4181 28.3647 23.3527 28.5148 23.2492C28.6659 23.1438 28.789 23.0029 28.8735 22.8388C28.9581 22.6746 29.0015 22.4922 29 22.3073V18.517ZM20.7528 18.4035C20.5811 18.3366 20.3957 18.313 20.2128 18.3348C20.0299 18.3565 19.8551 18.423 19.7036 18.5284C19.5541 18.6327 19.432 18.7717 19.3475 18.9338C19.263 19.0958 19.2188 19.276 19.2185 19.4589V26.0862C19.2186 26.3256 19.294 26.5587 19.4338 26.7523C19.5736 26.9459 19.7707 27.0901 19.9969 27.1643L22.039 27.8452V28.7304H13.9498V27.8452L15.9918 27.1643C16.218 27.0901 16.4151 26.9459 16.5549 26.7523C16.6947 26.5587 16.7701 26.3256 16.7703 26.0862V19.4589C16.77 19.276 16.7257 19.0958 16.6412 18.9338C16.5567 18.7717 16.4346 18.6327 16.2851 18.5284C16.1337 18.423 15.9588 18.3565 15.7759 18.3348C15.5931 18.313 15.4076 18.3366 15.2359 18.4035L9.24516 20.6732V19.2206L16.1385 15.7481C16.3266 15.6553 16.4854 15.5117 16.597 15.3333C16.7086 15.155 16.7686 14.9488 16.7703 14.7381V9.52928C16.7703 9.20423 16.8986 8.89249 17.1271 8.66265C17.3556 8.4328 17.6656 8.30368 17.9887 8.30368C18.3119 8.30368 18.6218 8.4328 18.8503 8.66265C19.0788 8.89249 19.2072 9.20423 19.2072 9.52928V14.7381C19.2089 14.9488 19.2689 15.155 19.3804 15.3333C19.492 15.5117 19.6508 15.6553 19.839 15.7481L26.7323 19.2206V20.6618L20.7528 18.4035Z" fill="white"/>
</svg>
