<svg width="37" height="37" viewBox="0 0 37 37" fill="none" xmlns="http://www.w3.org/2000/svg">
<circle cx="18.5" cy="18.5" r="18.5" fill="#FF9601"/>
<path d="M19 6C16.3478 6 13.8043 7.05357 11.9289 8.92893C10.0536 10.8043 9 13.3478 9 16C9 22.75 17.8125 30.375 18.1875 30.7C18.4139 30.8937 18.7021 31.0001 19 31.0001C19.2979 31.0001 19.5861 30.8937 19.8125 30.7C20.25 30.375 29 22.75 29 16C29 13.3478 27.9464 10.8043 26.0711 8.92893C24.1957 7.05357 21.6522 6 19 6ZM19 28.0625C16.3375 25.5625 11.5 20.175 11.5 16C11.5 14.0109 12.2902 12.1032 13.6967 10.6967C15.1032 9.29018 17.0109 8.5 19 8.5C20.9891 8.5 22.8968 9.29018 24.3033 10.6967C25.7098 12.1032 26.5 14.0109 26.5 16C26.5 20.175 21.6625 25.575 19 28.0625ZM19 11C18.0111 11 17.0444 11.2932 16.2221 11.8427C15.3999 12.3921 14.759 13.173 14.3806 14.0866C14.0022 15.0002 13.9031 16.0055 14.0961 16.9755C14.289 17.9454 14.7652 18.8363 15.4645 19.5355C16.1637 20.2348 17.0546 20.711 18.0245 20.9039C18.9945 21.0969 19.9998 20.9978 20.9134 20.6194C21.827 20.241 22.6079 19.6001 23.1573 18.7779C23.7068 17.9556 24 16.9889 24 16C24 14.6739 23.4732 13.4021 22.5355 12.4645C21.5979 11.5268 20.3261 11 19 11ZM19 18.5C18.5055 18.5 18.0222 18.3534 17.6111 18.0787C17.2 17.804 16.8795 17.4135 16.6903 16.9567C16.5011 16.4999 16.4516 15.9972 16.548 15.5123C16.6445 15.0273 16.8826 14.5819 17.2322 14.2322C17.5819 13.8826 18.0273 13.6445 18.5123 13.548C18.9972 13.4516 19.4999 13.5011 19.9567 13.6903C20.4135 13.8795 20.804 14.2 21.0787 14.6111C21.3534 15.0222 21.5 15.5055 21.5 16C21.5 16.663 21.2366 17.2989 20.7678 17.7678C20.2989 18.2366 19.663 18.5 19 18.5Z" fill="white"/>
</svg>
