<svg width="37" height="37" viewBox="0 0 37 37" fill="none" xmlns="http://www.w3.org/2000/svg">
<circle cx="18.5" cy="18.5" r="18.5" fill="#FF9601"/>
<path d="M29.8735 10.892L22.8735 8.55868H22.7918C22.7375 8.55322 22.6828 8.55322 22.6285 8.55868H22.1268L15.5002 10.8337L8.8735 8.55868C8.69805 8.50083 8.51137 8.48547 8.32882 8.51386C8.14628 8.54226 7.97309 8.6136 7.8235 8.72202C7.67272 8.82937 7.54964 8.97106 7.46444 9.13537C7.37924 9.29969 7.33436 9.48192 7.3335 9.66702V26.0003C7.33287 26.2449 7.40912 26.4835 7.55148 26.6824C7.69384 26.8813 7.89511 27.0304 8.12683 27.1087L15.1268 29.442C15.3619 29.5186 15.6151 29.5186 15.8502 29.442L22.5002 27.2253L29.1268 29.5003C29.2507 29.517 29.3763 29.517 29.5002 29.5003C29.7441 29.5038 29.9822 29.4258 30.1768 29.2787C30.3276 29.1713 30.4507 29.0296 30.5359 28.8653C30.6211 28.701 30.666 28.5188 30.6668 28.3337V12.0003C30.6675 11.7558 30.5912 11.5172 30.4489 11.3183C30.3065 11.1194 30.1052 10.9703 29.8735 10.892ZM14.3335 26.712L9.66683 25.1603V11.2887L14.3335 12.8403V26.712ZM21.3335 25.1603L16.6668 26.712V12.8403L21.3335 11.2887V25.1603ZM28.3335 26.712L23.6668 25.1603V11.2887L28.3335 12.8403V26.712Z" fill="white"/>
</svg>
